<svg width="56" height="56" viewBox="0 0 56 56" fill="none" xmlns="http://www.w3.org/2000/svg">
<path d="M29.2478 6H16.4188C12.8816 6 10 8.881 10 12.4176V43.5824C10 47.1104 12.8816 49.9914 16.4188 49.9914H18.2478C18.7569 49.9914 19.1624 49.5773 19.1624 49.077C19.1624 48.5681 18.7482 48.1627 18.2478 48.1627H16.4188C13.891 48.1627 11.8376 46.1098 11.8376 43.5824V12.4176C11.8376 9.89022 13.891 7.83729 16.4188 7.83729H29.2478C31.7757 7.83729 33.829 9.89022 33.829 12.4176V21.5867C33.829 22.0957 34.2431 22.5011 34.7435 22.5011C35.2439 22.5011 35.658 22.087 35.658 21.5867V12.4176C35.6667 8.881 32.7851 6 29.2478 6ZM34.7522 13.3319H10.9145C10.4141 13.3319 10 13.7459 10 14.2462C10 14.7465 10.4141 15.1606 10.9145 15.1606H34.7435C35.2526 15.1606 35.658 14.7465 35.658 14.2462C35.658 13.7459 35.2526 13.3319 34.7522 13.3319ZM26.4957 38.9935H10.9145C10.4141 38.9935 10 39.4076 10 39.9079C10 40.4168 10.4141 40.8222 10.9145 40.8222H26.4957C27.0047 40.8222 27.4102 40.4082 27.4102 39.9079C27.4188 39.4076 27.0047 38.9935 26.4957 38.9935ZM25.5812 9.66595H20.0769C19.5678 9.66595 19.1624 10.08 19.1624 10.5803C19.1624 11.0806 19.5765 11.4946 20.0769 11.4946H25.5812C26.0902 11.4946 26.4957 11.0806 26.4957 10.5803C26.4957 10.08 26.0902 9.66595 25.5812 9.66595ZM29.291 9.66595H29.2737C28.7647 9.66595 28.3678 10.08 28.3678 10.5803C28.3678 11.0806 28.7906 11.4946 29.291 11.4946C29.7914 11.4946 30.2055 11.0806 30.2055 10.5803C30.2055 10.08 29.7914 9.66595 29.291 9.66595ZM51.3773 30.2556L44.4839 22.6822C43.1208 21.3194 40.8949 21.3193 39.5231 22.6908C39.0831 23.1308 38.7898 23.6483 38.6345 24.209C37.2627 23.1566 35.2871 23.2601 34.0188 24.5281C33.5875 24.968 33.2855 25.4856 33.1302 26.0463C31.7584 24.9939 29.7827 25.0974 28.5231 26.3654C28.0918 26.7967 27.7984 27.3056 27.6431 27.8404L24.3906 24.5885C23.0275 23.2256 20.8016 23.2256 19.4298 24.5971C18.0667 25.96 18.0667 28.1855 19.4298 29.5483L31.9137 42.0384L24.5114 43.2029C22.5098 43.4876 21 45.23 21 47.2484C21 48.7665 22.2337 50 23.7522 50H41.0416C43.7333 50 46.2698 48.9477 48.1678 47.05L51.0494 44.169C52.9561 42.2713 54 39.7353 54 37.0527C54 34.5254 53.0682 32.1188 51.3773 30.2556ZM49.7553 42.8579L46.8737 45.7389C45.3122 47.3001 43.2416 48.1541 41.0416 48.1541H23.7522C23.2431 48.1541 22.8376 47.7401 22.8376 47.2398C22.8376 46.127 23.6659 45.1696 24.7875 45.0057L33.9843 43.5652C34.3294 43.5134 34.6055 43.2719 34.7176 42.9441C34.8212 42.6164 34.7349 42.2541 34.4933 42.0125L20.7239 28.2545C20.0769 27.6075 20.0769 26.5466 20.7325 25.8824C21.0604 25.5546 21.4831 25.3907 21.9145 25.3907C22.3459 25.3907 22.7686 25.5546 23.0965 25.8824L32.2675 35.0516C32.6212 35.4052 33.2078 35.4052 33.5616 35.0516C33.7427 34.8704 33.829 34.6375 33.829 34.4046C33.829 34.1717 33.7427 33.9388 33.5616 33.7577L29.8173 30.0141C29.1702 29.3672 29.1702 28.3062 29.8259 27.642C30.4729 26.9951 31.5341 26.9951 32.1812 27.642L35.9255 31.3856C36.2792 31.7393 36.8659 31.7393 37.2196 31.3856C37.4008 31.2045 37.4871 30.9716 37.4871 30.7387C37.4871 30.5058 37.4008 30.2729 37.2282 30.1004L35.3129 28.1855C34.6659 27.5385 34.6659 26.4776 35.3216 25.8134C35.9686 25.1664 37.0298 25.1664 37.6769 25.8134L39.5922 27.7283C39.9545 28.0647 40.5153 28.0647 40.869 27.711C41.2227 27.3574 41.2227 26.7708 40.869 26.4172L40.7914 26.3395C40.4722 26.0204 40.2996 25.6064 40.2996 25.1578C40.2996 24.7093 40.4722 24.2952 40.8 23.9675C41.4471 23.3205 42.5082 23.3205 43.1294 23.933L49.9969 31.4719C51.3773 32.99 52.1365 34.9567 52.1365 37.0182C52.171 39.2351 51.3082 41.3052 49.7553 42.8579Z" fill="url(#paint0_linear)"/>
<defs>
<linearGradient id="paint0_linear" x1="10" y1="50" x2="54" y2="6" gradientUnits="userSpaceOnUse">
<stop stop-color="#FE5000"/>
<stop offset="1" stop-color="#FE9800"/>
</linearGradient>
</defs>
</svg>
