<?xml version="1.0" encoding="utf-8"?><svg width="270" height="60" fill="none" xmlns="http://www.w3.org/2000/svg" viewBox="0 0 270 60">
  <g clip-path="url(#hclip0_1927_2738)">
    <path d="M93.24 13.92c-.48-1.32-1.2-1.68-2.64-1.68h-4.08c-1.44 0-2.16.36-2.64 1.8L71.4 47.64c-.48 1.44-.12 2.16 1.44 2.16h3.6c2.64 0 3.36-.48 3.84-1.92l1.68-4.92h12.96l1.68 4.92c.48 1.56 1.32 1.92 3.96 1.92h3.84c1.56 0 1.92-.72 1.44-2.16l-12.6-33.72zm-9 21.96L87 27.6c1.32-3.72 1.2-6.48 1.2-6.48h.48s.12 2.64 1.32 6.48l2.76 8.16c0 .12-8.52.12-8.52.12zm45-23.64h-25.08c-1.68 0-2.16.48-2.16 2.16V18c0 1.56.48 2.16 2.16 2.16h8.28v27.48c0 1.68.48 2.16 2.16 2.16h4.2c1.68 0 2.16-.48 2.16-2.16v-27.6h8.16c1.68 0 2.16-.48 2.16-2.16V14.4c.12-1.56-.48-2.16-2.04-2.16zm22.44 13.8h-8.52v-6.12H159c1.56 0 2.16-.6 2.16-2.16V14.4c0-1.68-.6-2.16-2.16-2.16h-22.2c-1.56 0-2.16.48-2.16 2.16v33.24c0 1.56.6 2.04 2.16 2.04h15c7.32 0 12-4.56 12-11.76 0-7.44-4.8-11.88-12.12-11.88zm-1.2 16.08h-7.32v-8.4h7.32c2.76 0 4.32 1.68 4.32 4.2.12 2.4-1.44 4.2-4.32 4.2zM180.24 56.28h.6V5.76h-.6v50.52zm19.56-36.12c-.48 0-1.32-.24-1.8-.6l-.36.48c.36.48 1.44.72 2.16.72 1.32 0 2.28-.6 2.28-1.68 0-.6-.36-1.2-1.2-1.32.72-.24.96-.84.96-1.32 0-.96-.72-1.44-2.04-1.44-.84 0-1.68.24-2.16.72l.24.48c.36-.36.96-.6 1.8-.6.84 0 1.44.36 1.44.96s-.48 1.08-1.2 1.08h-.72v.48h.96c.84 0 1.32.36 1.32.96 0 .72-.72 1.08-1.68 1.08zm28.2-5.04h-.6v5.64h.6v-5.64zm14.52 2.16h-2.88V18h2.88v-.72zm-10.44 3.36l-3-2.88 2.76-2.64H231l-2.76 2.76 2.88 2.88.96-.12zm-24-4.68v4.68h.6V15h-.6l-3.72 4.68V15h-.6v5.64h.6l3.72-4.68zm-17.52 1.8h4.2l1.32 3h.72L192.96 12h-.6l-3.84 8.76h.72l1.32-3zm2.16-4.92l1.8 4.2h-3.6l1.8-4.2zm24.84 7.8h.6v-4.92h2.28v-.6h-5.16v.6h2.28v4.92zM235.32 15c-1.8 0-3 1.2-3 2.88s1.2 2.88 3 2.88 3-1.2 3-2.88-1.2-2.88-3-2.88zm0 5.16c-1.32 0-2.28-.96-2.28-2.28 0-1.32.96-2.28 2.28-2.28 1.32 0 2.28.96 2.28 2.28 0 1.32-.84 2.28-2.28 2.28zM212.4 15c-.72 0-1.32.24-1.8.48l.12.48c.48-.24.96-.48 1.56-.48 1.44 0 1.44.84 1.44 2.16-.48-.36-1.08-.48-1.56-.48-1.2 0-2.16.6-2.16 1.8 0 1.08.72 1.68 1.68 1.68 1.08 0 1.56-.48 1.92-.96v.84h.6v-3.48c.24-1.2-.24-2.04-1.8-2.04zm1.44 4.32c-.36.36-.72.84-1.68.84-.72 0-1.2-.36-1.2-1.08 0-.84.72-1.2 1.56-1.2.6 0 1.08.12 1.44.48v.96h-.12zm12.24.6l-.36-.48c-.36.48-1.08.72-1.8.72-1.32 0-2.28-.84-2.28-2.28 0-1.32 1.08-2.28 2.16-2.28.6 0 1.32.12 1.8.6l.36-.48c-.48-.48-1.32-.72-2.16-.72-1.56 0-2.76 1.32-2.76 2.88 0 1.8 1.2 2.88 3 2.88.72 0 1.56-.24 2.04-.84zm9.6 9.12c-.72 0-1.32.24-1.8.48l.12.48c.48-.24.96-.48 1.56-.48 1.44 0 1.44.84 1.44 2.16-.48-.36-1.08-.48-1.56-.48-1.2 0-2.16.6-2.16 1.8 0 1.08.72 1.68 1.68 1.68 1.08 0 1.56-.48 1.92-.96v.84h.6V31.2c.24-1.32-.24-2.16-1.8-2.16zm1.44 4.32c-.36.36-.72.84-1.68.84-.72 0-1.2-.36-1.2-1.08 0-.84.72-1.2 1.56-1.2.6 0 1.08.12 1.44.48v.96h-.12zm-10.56-4.2h-.84l-2.76 2.76 2.88 2.88h.84l-3-2.88 2.88-2.76zm17.28 2.4h-3.6v-2.4h-.6v5.64h.6v-2.52h3.6v2.52h.6v-5.64h-.6v2.4zm-13.92-2.52c-1.8 0-2.88 1.32-2.88 2.88 0 1.8 1.2 2.88 3 2.88.72 0 1.56-.24 2.04-.84l-.24-.48c-.36.36-1.08.72-1.8.72-1.32 0-2.28-.84-2.28-2.16h4.68v-.48c0-1.56-1.08-2.52-2.52-2.52zm-2.16 2.52c.12-1.08.84-1.92 2.04-1.92 1.2 0 1.92.72 1.92 1.92h-3.96zm31.08 2.28v-4.68h-.6v5.64h.6l3.72-4.68v4.68h.6v-5.64h-.6l-3.72 4.68zm10.56-4.68l-3.72 4.68v-4.68h-.6v5.64h.6l3.72-4.68v4.68h.6v-5.64h-.6zm-1.68-1.32c.96 0 1.68-.72 1.68-1.56h-.6c0 .6-.48 1.08-1.08 1.08-.72 0-1.2-.48-1.2-1.08h-.6c0 .84.6 1.56 1.8 1.56zm-75.84 6.84h.72v-8.04h3.24v-.6h-7.2v.6h3.24v8.04zm57-.48c-1.32 0-2.28-.84-2.28-2.28 0-1.32 1.08-2.28 2.16-2.28.6 0 1.32.12 1.8.6l.36-.48c-.48-.48-1.32-.72-2.16-.72-1.56 0-2.76 1.32-2.76 2.88 0 1.8 1.2 2.88 3 2.88.84 0 1.68-.36 2.16-.96l-.36-.48c-.48.6-1.2.84-1.92.84zm7.92-5.04h-.84l-2.76 2.76 2.88 2.88h.84l-3-2.88 2.88-2.76zm-4.56 5.52h.6v-5.64h-.6v5.64zm-34.68-5.64c-1.8 0-3 1.2-3 2.88s1.2 2.88 3 2.88 3-1.2 3-2.88-1.2-2.88-3-2.88zm0 5.16c-1.32 0-2.28-.96-2.28-2.28 0-1.32.96-2.28 2.28-2.28 1.32 0 2.28.96 2.28 2.28 0 1.32-.96 2.28-2.28 2.28zm-4.08-2.28c0-1.68-1.2-2.88-3-2.88s-3 1.2-3 2.88 1.2 2.88 3 2.88 3-1.2 3-2.88zm-5.16 0c0-1.32.96-2.28 2.28-2.28 1.32 0 2.28.96 2.28 2.28 0 1.32-.96 2.28-2.28 2.28-1.32 0-2.28-.96-2.28-2.28zM222 34.68h.6v-5.64h-.6v5.64zm-15.72 0h.84l-2.28-2.88 2.16-2.76h-.72l-1.8 2.28-1.8-2.28h-.84L204 31.8l-2.28 2.88h.72l1.92-2.52 1.92 2.52zm-6.48 0h.6v-5.64h-.6l-3.72 4.68v-4.68h-.6v5.64h.6L199.8 30v4.68zm14.04 8.52H213l-2.76 2.76 2.88 2.88h.84l-3-2.88 2.88-2.76zm-15.12-.12c-.72 0-1.32.24-1.8.48l.12.48c.48-.24.96-.48 1.56-.48 1.44 0 1.44.84 1.44 2.16-.48-.36-1.08-.48-1.56-.48-1.2 0-2.16.6-2.16 1.8 0 1.08.72 1.68 1.68 1.68 1.08 0 1.56-.48 1.92-.96v.84h.6v-3.48c.24-1.2-.24-2.04-1.8-2.04zm1.44 4.32c-.36.36-.72.84-1.68.84-.72 0-1.2-.36-1.2-1.08 0-.84.72-1.2 1.56-1.2.6 0 1.08.12 1.44.48v.96h-.12zm9.12 1.32h.6V43.2h-.6v5.52zm-2.4-3.12h-3.6v-2.4h-.6v5.64h.6v-2.52h3.6v2.52h.6V43.2h-.6v2.4zm-14.76-2.04c-.36 0-.96 0-1.44.12v-3h4.08v-.6h-4.8v8.76h1.92c2.04 0 3.36-.96 3.36-2.76 0-1.56-1.08-2.52-3.12-2.52zm-.12 4.56h-1.32v-3.84c.48-.12 1.08-.12 1.44-.12 1.68 0 2.52.72 2.52 1.92-.12 1.32-.96 2.04-2.64 2.04z" fill="#2A2C29" />
    <path d="M49.92.12H9.96C4.44.12 0 4.56 0 10.08v39.96C0 55.56 4.44 60 9.96 60h39.96c5.52 0 9.96-4.44 9.96-9.96V10.08c0-5.52-4.44-9.96-9.96-9.96zm6.84 48.84c-.12.12-.24.12-.36.12-7.68-4.68-16.8-7.32-26.4-7.32-9.6 0-18.72 2.64-26.52 7.32-.12.12-.36 0-.36-.12-.12-.12-.12-.36.12-.36 6.96-5.4 13.08-12.24 17.64-20.4a69.11 69.11 0 008.76-25.44c0-.12.12-.24.36-.24.12 0 .24.12.36.24a69.11 69.11 0 008.76 25.44c4.68 8.04 10.68 14.88 17.76 20.28 0 .12 0 .36-.12.48z" fill="#FE5000" />
  </g>
  <defs>
    <clipPath id="hclip0_1927_2738">
      <path fill="#fff" d="M0 0h270v60H0z" />
    </clipPath>
  </defs>
</svg>
