<svg width="28" height="28" viewBox="0 0 28 28" fill="none" xmlns="http://www.w3.org/2000/svg">
<path fill-rule="evenodd" clip-rule="evenodd" d="M14.8259 7.38189C15.8837 6.77742 17.1855 6.4606 18.7569 6.4606C19.9501 6.4606 20.9825 6.65461 21.8658 7.02726L22.0255 6.64875L21.8658 7.02726C22.7475 7.39925 23.4123 7.91823 23.8856 8.57563L24.3725 8.22505L23.8856 8.57563C24.3535 9.22555 24.591 9.97288 24.591 10.8396C24.591 11.6291 24.4216 12.3646 24.0838 13.0536L24.0838 13.0536L24.0817 13.0581C23.7678 13.7121 23.115 14.5138 22.061 15.4639L22.0589 15.4658L19.7854 17.5347L18.6384 18.5784H20.1892H24.9547V21.539H13.4003V19.1047L18.9597 13.9628L18.9597 13.9628L18.9631 13.9596C19.479 13.475 19.8746 13.0151 20.0893 12.5857C20.2906 12.1832 20.4027 11.7659 20.4027 11.3398C20.4027 10.7961 20.207 10.3104 19.7764 9.96816C19.37 9.61746 18.8311 9.48933 18.2568 9.48933C17.6592 9.48933 17.0972 9.64972 16.5813 9.96296C16.2267 10.1783 15.9286 10.4533 15.6878 10.7827L12.7152 9.29639C13.2417 8.51258 13.9406 7.87627 14.8207 7.38479L14.8207 7.38482L14.8259 7.38189ZM18.7569 5.2606C17.0253 5.2606 15.5089 5.6102 14.2331 6.33853C12.9708 7.04405 12.0009 8.01992 11.3388 9.26133L11.0489 9.80486L11.5999 10.0803L15.6467 12.1038L16.1904 12.3756L16.4551 11.8285C16.6348 11.4571 16.8837 11.1832 17.204 10.9887C17.5369 10.7866 17.8843 10.6893 18.2568 10.6893C18.6761 10.6893 18.8892 10.7856 18.9965 10.8803L19.0105 10.8926L19.0252 10.904C19.1301 10.9856 19.2027 11.1014 19.2027 11.3398C19.2027 11.5502 19.1482 11.7847 19.016 12.049C18.8974 12.2863 18.6265 12.6292 18.1432 13.0835L12.3929 18.4019L12.2003 18.58V18.8424V22.139V22.739H12.8003H25.5547H26.1547V22.139V17.9784V17.3784H25.5547H21.7401L22.8645 16.3552L22.8655 16.3543C23.9623 15.3655 24.7486 14.4404 25.1624 13.5797C25.5818 12.7233 25.791 11.8074 25.791 10.8396C25.791 9.73593 25.4828 8.74023 24.8594 7.87447C24.2415 7.0162 23.3905 6.3681 22.3322 5.92163C21.2755 5.47581 20.0797 5.2606 18.7569 5.2606ZM2.25781 5.62388H1.65781V6.22388V10.2707V10.8707H2.25781H4.38603V22.1385V22.7385H4.98603H10.3515H10.9515V22.1385V6.22388V5.62388H10.3515H2.25781ZM2.85781 9.67073V6.82388H9.75152V21.5385H5.58603V10.2707V9.67073H4.98603H2.85781Z" fill="url(#paint0_linear_10337_3689)"/>
<defs>
<linearGradient id="paint0_linear_10337_3689" x1="6.76905" y1="22.639" x2="26.3698" y2="14.0127" gradientUnits="userSpaceOnUse">
<stop stop-color="#FE5000"/>
<stop offset="1" stop-color="#FCA92A"/>
</linearGradient>
</defs>
</svg>
