<svg width="78" height="38" viewBox="0 0 78 38" fill="none" xmlns="http://www.w3.org/2000/svg">
<g clip-path="url(#clip0_3538_1151)">
<path d="M45.3505 5.42776C42.4377 2.75757 38.5679 1.11446 34.305 1.11446H0C0.0644982 2.35899 0.245642 3.57104 0.519797 4.74695C0.586735 5.00891 0.644829 5.27407 0.721525 5.53206C0.750649 5.63757 0.779928 5.74293 0.810728 5.84799C3.46476 14.2694 11.3337 20.3776 20.632 20.3776H50.4027C50.5709 19.4367 50.6744 18.4733 50.6744 17.484C50.6744 12.7063 48.615 8.42045 45.3505 5.42776Z" fill="#006848"/>
<path d="M35.3165 10.5877H28.9079V10.9785V13.9202V13.9211H30.9398V12.0441H31.7972L32.9492 13.9211H35.2586L33.9022 11.8868C34.5543 11.6536 35.0712 11.1802 35.3165 10.5877Z" fill="white"/>
<path d="M34.6587 8.1601C34.2605 7.79507 33.7318 7.57062 33.1493 7.57062H28.7773C28.7861 7.74064 28.8108 7.90638 28.8483 8.06709C28.8575 8.10277 28.8654 8.13906 28.8758 8.17428C28.8799 8.18862 28.8839 8.2031 28.888 8.21743C29.2507 9.36834 30.3262 10.203 31.5968 10.203H35.3491C35.3721 10.0746 35.3861 9.94272 35.3861 9.80778C35.3861 9.15472 35.1048 8.56905 34.6587 8.1601Z" fill="white"/>
<path d="M22.0611 8.40531L21.2193 11.3234H21.0751L20.2332 8.40531C20.0907 7.91113 19.6383 7.57065 19.1238 7.57065H17.1057V13.9215H19.1265V10.1686H19.2708L20.4255 13.9215H21.8689L23.0236 10.1686H23.1678V13.9215H25.1886V7.57065H23.1706C22.6561 7.57065 22.2037 7.91113 22.0611 8.40531Z" fill="white"/>
<path d="M26.056 13.9215H28.0767V7.5708H26.056V13.9215Z" fill="white"/>
<path d="M47.7008 28.1533C48.8869 28.1533 49.69 27.5329 49.69 26.5839V26.5656C49.69 25.5527 48.9052 25.0236 47.7556 25.0236H45.9488V28.1533H47.7008ZM45.4742 24.5855H47.7922C49.1972 24.5855 50.1646 25.3063 50.1646 26.5381V26.5564C50.1646 27.8978 49.0057 28.5914 47.6734 28.5914H45.9488V30.973H45.4742V24.5855Z" fill="#006848"/>
<path d="M54.3374 29.2295V28.7003C53.9451 28.6 53.425 28.4903 52.7586 28.4903C51.7733 28.4903 51.2258 28.9284 51.2258 29.5763V29.5947C51.2258 30.2697 51.8645 30.6622 52.5763 30.6622C53.5253 30.6622 54.3374 30.0781 54.3374 29.2295ZM50.7511 29.6219V29.6037C50.7511 28.6364 51.5816 28.089 52.7861 28.089C53.4339 28.089 53.8812 28.1712 54.3282 28.2897V28.089C54.3282 27.149 53.7534 26.6655 52.7952 26.6655C52.2295 26.6655 51.7642 26.8205 51.3352 27.0397L51.1709 26.6472C51.682 26.4099 52.1839 26.2457 52.8225 26.2457C53.4522 26.2457 53.9541 26.4191 54.2916 26.7567C54.6019 27.0669 54.7663 27.4959 54.7663 28.0707V30.9725H54.3282V30.1969C54.0089 30.6439 53.4339 31.0818 52.549 31.0818C51.682 31.0818 50.7511 30.5892 50.7511 29.6219Z" fill="#006848"/>
<path d="M59.4604 26.3196H59.9532L57.9365 31.1376C57.5259 32.114 57.0514 32.4607 56.3854 32.4607C56.0295 32.4607 55.7739 32.3968 55.4636 32.26L55.6189 31.8677C55.8653 31.9862 56.0659 32.0409 56.4127 32.0409C56.8963 32.0409 57.2156 31.7581 57.5625 30.946L55.3269 26.3196H55.847L57.7815 30.4806L59.4604 26.3196Z" fill="#006848"/>
<path d="M71.5976 22.4576L71.7446 22.2971C68.7943 19.5923 64.8715 17.9265 60.5521 17.9267H26.0179L26.0297 18.1555C26.0953 19.4138 26.2782 20.6386 26.555 21.826L26.5556 21.8284L26.556 21.8307C26.6219 22.0876 26.6803 22.3555 26.7602 22.6239L26.9686 22.5618L26.759 22.6195C26.7881 22.7256 26.8178 22.832 26.8489 22.9386L26.8497 22.9411L26.8503 22.943C29.5323 31.4531 37.4834 37.6245 46.8791 37.625H76.8317L76.8639 37.4457C77.0339 36.4947 77.1391 35.5182 77.1391 34.5138C77.1391 29.6728 75.0517 25.3284 71.7446 22.2971L71.5976 22.4576L71.4506 22.618C74.6726 25.5721 76.7039 29.7994 76.7039 34.5138C76.7039 35.4879 76.6021 36.4381 76.4356 37.3691L76.6496 37.4074V37.1898H46.8791C37.6781 37.1901 29.8916 31.1453 27.2652 22.8122L27.0578 22.8776L27.2666 22.8165C27.2364 22.7134 27.2073 22.6091 27.1785 22.5041L27.1777 22.5016L27.1771 22.4996C27.1033 22.252 27.0456 21.9897 26.9776 21.7229L26.7668 21.7767L26.9787 21.7273C26.7074 20.563 26.5281 19.3638 26.4642 18.133L26.247 18.1443V18.3618H60.5521C64.7585 18.3618 68.5753 19.9825 71.4506 22.618L71.5976 22.4576Z" fill="#006848"/>
</g>
<defs>
<clipPath id="clip0_3538_1151">
<rect width="78" height="38" fill="white"/>
</clipPath>
</defs>
</svg>
