<svg width="60" height="27" viewBox="0 0 60 27" fill="none" xmlns="http://www.w3.org/2000/svg">
<g clip-path="url(#clip0)">
<path d="M13.5941 26.9999V13.2903H15.8031V14.2974C16.1069 13.8054 16.7012 13.4554 17.1668 13.3002C17.6357 13.145 18.1178 13.0657 18.6131 13.0657C19.8348 13.0657 21.1391 13.4785 22.199 14.578C23.1764 15.595 23.6948 16.8333 23.6948 18.2993C23.6948 18.9729 23.566 19.6333 23.3084 20.2706C23.0608 20.9079 22.7042 21.4692 22.2485 21.9381C21.7664 22.4433 21.2183 22.823 20.6141 23.0805C20.0131 23.3348 19.4485 23.4669 18.7121 23.4669C18.1739 23.4669 17.6555 23.3843 17.1668 23.2126C16.6847 23.0574 16.0111 22.6711 15.7668 22.2451V26.9966H13.5941V26.9999ZM18.5404 15.0139C17.7348 15.0139 17.0314 15.2648 16.4569 15.8559C15.8692 16.47 15.638 17.3484 15.638 18.2234C15.638 19.1545 15.8593 20.0626 16.4338 20.6767C17.0116 21.2942 17.7248 21.5088 18.5569 21.5088C19.3989 21.5088 20.0824 21.1654 20.6008 20.6404C21.1985 20.0328 21.4792 19.2107 21.4792 18.3224C21.4792 17.3517 21.1919 16.4899 20.6141 15.879C20.1221 15.3507 19.4022 15.0139 18.5404 15.0139Z" fill="#164193"/>
<path d="M38.8375 27L40.7031 22.6778L36.4271 13.2903H38.7549L41.7927 20.3367L44.5961 13.2903H46.9371L41.1257 27H38.8375Z" fill="#164193"/>
<path d="M32.9204 23.2885V22.2517C32.6761 22.6744 32.0025 23.064 31.5204 23.2192C31.0284 23.3909 30.5067 23.4734 29.9751 23.4734C29.2354 23.4734 28.6741 23.3447 28.0699 23.0871C27.4689 22.8296 26.9208 22.4465 26.4387 21.9413C25.9797 21.4758 25.6231 20.9111 25.3788 20.2772C25.1212 19.6366 24.9891 18.9795 24.9891 18.3059C24.9891 16.8398 25.5075 15.6016 26.4882 14.5846C27.5514 13.4818 28.8557 13.0723 30.0774 13.0723C30.5694 13.0723 31.0515 13.1516 31.5204 13.3068C31.9893 13.462 32.5836 13.812 32.8874 14.304V13.2969H35.0931V23.2951H32.9204V23.2885ZM28.0699 15.879C27.492 16.4931 27.208 17.3549 27.208 18.3224C27.208 19.2073 27.492 20.0328 28.0864 20.6404C28.6048 21.1654 29.2883 21.5088 30.1303 21.5088C30.9624 21.5088 31.6723 21.2942 32.2501 20.6767C32.828 20.0625 33.0459 19.1545 33.0459 18.2234C33.0459 17.3483 32.818 16.4733 32.2336 15.8559C31.6525 15.2615 30.9524 15.0139 30.1501 15.0139C29.2817 15.0139 28.5684 15.3507 28.0699 15.879Z" fill="#164193"/>
<path d="M49.2518 6.94729L49.1396 0.270752H51.2462V8.69401H48.215L46.1183 1.77974H46.0654L46.1843 8.69401H44.0942V0.270752H47.2475L49.2056 6.94729H49.2518Z" fill="#164193"/>
<path d="M10.9856 1.05661L9.82329 8.76996H7.52844L9.10017 0.270752H12.8875L14.4592 8.76996H12.171L11.0351 1.05661H10.9856Z" fill="#164193"/>
<path d="M20.9013 6.77558L21.9547 0.270752H25.4184L25.6099 8.76996H23.4802L23.4207 1.12926H23.3778L21.958 8.76996H19.8051L18.3787 1.12926H18.3291L18.2763 8.76996H16.1498L16.3447 0.270752H19.8117L20.8584 6.77558H20.9013Z" fill="#164193"/>
<path d="M38.7318 7.49541C39.3295 7.49541 39.5078 7.08927 39.5507 6.88455C39.5672 6.79209 39.5672 6.66992 39.5672 6.55765V0.270752H41.7267V6.36614C41.7267 6.52463 41.7102 6.84162 41.7036 6.92747C41.5583 8.51571 40.297 9.02421 38.7318 9.02421C37.17 9.02421 35.9153 8.51571 35.77 6.92747C35.7601 6.84162 35.7436 6.52463 35.7502 6.36614V0.270752H37.903V6.56096C37.8964 6.66992 37.9063 6.79539 37.9196 6.88785C37.9592 7.09257 38.1441 7.49541 38.7318 7.49541Z" fill="#164193"/>
<path d="M3.94582 6.37275C4.02507 6.58077 4.00196 6.84493 3.96233 7.00342C3.89299 7.28739 3.70148 7.57796 3.13024 7.57796C2.60193 7.57796 2.28164 7.27088 2.28164 6.80531L2.27504 5.97982H0V6.63691C0 8.53553 1.48918 9.10676 3.08402 9.10676C4.62933 9.10676 5.89397 8.58506 6.09209 7.16852C6.19775 6.43219 6.1218 5.9501 6.08548 5.7718C5.72887 3.98545 2.49627 3.46374 2.25523 2.46655C2.2123 2.29155 2.22221 2.11655 2.24532 2.02079C2.31136 1.73682 2.49627 1.44295 3.02458 1.44295C3.52648 1.44295 3.82035 1.75663 3.82035 2.209V2.74061H5.9435V2.14296C5.9435 0.287269 4.27602 0 3.07081 0C1.56182 0 0.323591 0.501896 0.0990583 1.89201C0.0396233 2.26844 0.0330194 2.60523 0.115568 3.03449C0.485386 4.77461 3.50997 5.2732 3.94582 6.37275Z" fill="#164193"/>
<path d="M31.5963 6.36289C31.6822 6.5643 31.6459 6.82516 31.6128 6.98365C31.5468 7.26101 31.352 7.54498 30.794 7.54498C30.2656 7.54498 29.9487 7.2412 29.9487 6.78223V5.96335H27.6868V6.61714C27.6868 8.49924 29.1661 9.05727 30.751 9.05727C32.2666 9.05727 33.5214 8.54217 33.7228 7.13554C33.8251 6.40911 33.7492 5.93363 33.7129 5.74872C33.3596 3.98879 30.1633 3.46708 29.9288 2.4765C29.8859 2.3114 29.8991 2.13309 29.9156 2.04064C29.9718 1.76988 30.1567 1.47601 30.685 1.47601C31.1836 1.47601 31.4709 1.77979 31.4709 2.22885V2.75386H33.5676V2.16611C33.5676 0.333534 31.9199 0.0462646 30.7345 0.0462646C29.2354 0.0462646 28.0071 0.534953 27.7925 1.91517C27.7231 2.28498 27.7165 2.61848 27.809 3.04773C28.1722 4.77465 31.1638 5.26994 31.5963 6.36289Z" fill="#164193"/>
<path d="M56.4732 7.40949C57.0841 7.40949 57.302 7.02647 57.3416 6.79533C57.3548 6.69957 57.3614 6.5774 57.3614 6.47174V5.24011H56.493V3.99528H59.5044V6.28023C59.5044 6.43872 59.4978 6.55759 59.4747 6.84156C59.3327 8.38026 57.9888 8.94159 56.4798 8.94159C54.9774 8.94159 53.6368 8.38026 53.5015 6.84156C53.4684 6.55759 53.4684 6.43872 53.4684 6.28023V2.70092C53.4684 2.54903 53.485 2.27827 53.5081 2.14289C53.693 0.544748 54.9774 0.0395508 56.4831 0.0395508C57.9921 0.0395508 59.3195 0.538144 59.4714 2.14289C59.5044 2.40374 59.4879 2.70092 59.4879 2.70092L59.4912 2.97828H57.3482V2.5028C57.3482 2.5028 57.3482 2.29808 57.3185 2.17591C57.2822 1.9943 57.1171 1.56175 56.4666 1.56175C55.8557 1.56175 55.6708 1.97119 55.6246 2.17591C55.5982 2.28818 55.5916 2.44337 55.5916 2.58205V6.47174C55.5916 6.5807 55.5982 6.69957 55.6081 6.79533C55.6411 7.02647 55.8524 7.40949 56.4732 7.40949Z" fill="#164193"/>
</g>
<defs>
<clipPath id="clip0">
<rect width="59.501" height="27" fill="white"/>
</clipPath>
</defs>
</svg>
