<svg width="74" height="37" viewBox="0 0 74 37" fill="none" xmlns="http://www.w3.org/2000/svg">
<path d="M65.4662 15.8401V24.886H62.2225V18.5405H59.0994V24.886H55.8558V15.8395H65.4662V15.8401Z" fill="black"/>
<path fill-rule="evenodd" clip-rule="evenodd" d="M49.1945 25.2094C52.0981 25.2094 54.2543 23.4365 54.2543 20.7488C54.2543 18.1474 52.6636 16.4583 50.0048 16.4583C48.7777 16.4583 47.7654 16.8884 47.0026 17.6306C47.1848 16.0966 48.4872 14.9768 49.9216 14.9768C50.2524 14.9768 52.7444 14.9715 52.7444 14.9715L54.1535 12.2863C54.1535 12.2863 51.0251 12.3572 49.5707 12.3572C46.2478 12.4148 44.0034 15.4226 44.0034 19.0758C44.0034 23.3317 46.1923 25.2094 49.1945 25.2094ZM49.2121 18.8368C50.2904 18.8368 51.0378 19.5423 51.0378 20.7485C51.0378 21.8341 50.3736 22.7286 49.2121 22.731C48.1012 22.731 47.3538 21.9022 47.3538 20.767C47.3538 19.5605 48.1012 18.8368 49.2121 18.8368Z" fill="black"/>
<path d="M41.3632 21.8575C41.3632 21.8575 40.5973 22.2972 39.4531 22.3804C38.1377 22.4193 36.9657 21.592 36.9657 20.1222C36.9657 18.6884 37.9999 17.8667 39.4201 17.8667C40.2905 17.8667 41.4424 18.4677 41.4424 18.4677C41.4424 18.4677 42.2851 16.9276 42.7217 16.1573C41.9222 15.5539 40.8575 15.2231 39.6189 15.2231C36.4934 15.2231 34.0723 17.2525 34.0723 20.104C34.0723 22.9918 36.3478 24.9741 39.6189 24.9143C40.5335 24.8804 41.7948 24.5606 42.5635 24.0689L41.3632 21.8575Z" fill="black"/>
<path d="M0 8.05371L4.49945 16.0627V20.9479L0.00526359 28.9411L0 8.05371Z" fill="#5B57A2"/>
<path d="M17.276 13.1482L21.4921 10.5749L30.1207 10.5668L17.276 18.4028V13.1482Z" fill="#D90751"/>
<path d="M17.2522 8.00649L17.276 18.6101L12.7661 15.8505V0L17.2522 8.00649Z" fill="#FAB718"/>
<path d="M30.1207 10.5669L21.4919 10.5749L17.2522 8.00649L12.7661 0L30.1207 10.5669Z" fill="#ED6F26"/>
<path d="M17.276 28.9855V23.841L12.7661 21.1338L12.7685 37L17.276 28.9855Z" fill="#63B22F"/>
<path d="M21.4817 26.4356L4.49914 16.0627L0 8.05371L30.1025 26.4251L21.4814 26.4356H21.4817Z" fill="#1487C9"/>
<path d="M12.7687 37L17.2756 28.9855L21.4812 26.4356L30.102 26.4251L12.7687 37Z" fill="#017F36"/>
<path d="M0.00515747 28.9411L12.8028 21.1341L8.5003 18.5052L4.49933 20.9479L0.00515747 28.9411Z" fill="#984995"/>
</svg>
